<?xml version="1.0" encoding="utf-8"?>
<!-- Generator: Adobe Illustrator 23.0.1, SVG Export Plug-In . SVG Version: 6.00 Build 0)  -->
<svg version="1.1" id="Layer_1" xmlns="http://www.w3.org/2000/svg" xmlns:xlink="http://www.w3.org/1999/xlink" x="0px" y="0px"
	 viewBox="0 0 56 56" style="enable-background:new 0 0 56 56;" xml:space="preserve">
<style type="text/css">
	.st0{fill:#228019;}
</style>
<g>
	<path class="st0" d="M17.6,18.58c3.49,0.37,7,0.56,10.51,0.56c3.51,0,7.02-0.19,10.51-0.56c0.2-0.02,0.34-0.2,0.32-0.4l-0.08-0.72
		c-0.02-0.2-0.2-0.34-0.4-0.32c-6.87,0.74-13.83,0.74-20.7,0c-0.2-0.02-0.37,0.12-0.4,0.32l-0.08,0.72
		C17.25,18.38,17.4,18.56,17.6,18.58z"/>
	<path class="st0" d="M55.29,54.94c-0.83-3.59-1.7-5.52-2.34-6.54c0-0.01-0.01-0.01-0.01-0.02c-0.09-0.15-0.18-0.28-0.27-0.39
		c-0.01-0.02-0.03-0.04-0.04-0.05c-0.02-0.03-0.04-0.05-0.06-0.08c-0.24-0.31-0.43-0.46-0.52-0.52c-0.02-0.01-0.05-0.03-0.09-0.06
		c-0.04-0.03-0.1-0.06-0.16-0.1c-0.8-0.49-3.56-1.99-10.35-4.08c-0.13-0.04-0.26-0.09-0.39-0.13l-0.27-0.09
		c-1.38-0.5-2.65-1.19-3.8-2.06c-0.3-0.23-0.6-0.46-0.87-0.69c-0.09-0.07-0.14-0.18-0.15-0.29c-0.04-0.57-0.09-1.43-0.12-2.29
		c-0.06-1.77,0.02-2.32,0.06-2.45c0.12-0.15,0.38-0.49,0.69-0.95c0.55-0.83,0.92-1.79,1.08-2.78c0.09-0.56,0.15-1.09,0.18-1.57
		c0.52-0.08,0.95-0.39,1.25-0.87l0.06-0.1l0.03-0.11c0.03-0.14,0.13-0.54,0.23-0.79c0.14-0.37,0.24-0.74,0.27-1.11
		c0.08-0.78,0.21-1.42,0.35-1.76c0.34-0.77,0.43-1.64,0.26-2.44c-0.05-0.24-0.13-0.45-0.21-0.64c0.52-0.49,0.92-1.09,1.14-1.75
		c0.16-0.49,0.31-0.96,0.47-1.43c0.24-0.71-0.01-1.45-0.6-1.92l-0.01-3.75c0-0.55-0.03-1.04-0.09-1.5
		c-0.61-4.53-3.56-8.39-7.74-10.19C33.1,1,32.76,0.67,32.32,0.58L30.46,0.2c-0.35-0.07-0.72,0.02-0.99,0.23
		c-0.91-0.1-1.82-0.1-2.73,0c-0.27-0.21-0.64-0.3-0.99-0.23l-1.86,0.39C23.45,0.67,23.1,1,22.98,1.41
		c-4.18,1.8-7.13,5.67-7.74,10.19c-0.06,0.46-0.09,0.95-0.09,1.5l-0.01,3.75c-0.6,0.47-0.84,1.21-0.61,1.92
		c0.16,0.47,0.31,0.95,0.47,1.44c0.19,0.59,0.54,1.14,1,1.61c-0.12,0.2-0.22,0.45-0.29,0.78c-0.17,0.8-0.08,1.67,0.26,2.44
		c0.15,0.33,0.28,0.97,0.35,1.76c0.04,0.37,0.13,0.74,0.27,1.1c0.1,0.25,0.2,0.66,0.23,0.8l0.03,0.11l0.06,0.1
		c0.29,0.49,0.73,0.79,1.25,0.87c0.03,0.49,0.09,1.01,0.18,1.57c0.16,0.99,0.53,1.95,1.08,2.78c0.3,0.45,0.56,0.79,0.69,0.95
		c0.03,0.14,0.11,0.68,0.06,2.46c-0.03,0.92-0.09,1.83-0.12,2.29c-0.01,0.11-0.06,0.22-0.15,0.29c-0.27,0.23-0.57,0.46-0.87,0.69
		c-1.15,0.87-2.43,1.56-3.8,2.06l-0.27,0.09c-0.13,0.04-0.26,0.09-0.39,0.13c-6.79,2.09-9.55,3.59-10.35,4.08
		c-0.07,0.04-0.12,0.08-0.16,0.1C4,47.3,3.97,47.32,3.95,47.34c-0.09,0.06-0.27,0.21-0.52,0.52c-0.02,0.02-0.04,0.05-0.06,0.08
		c-0.04,0.05-0.08,0.11-0.13,0.18c-0.6,0.86-1.48,2.6-2.34,6.01c-0.07,0.26-0.13,0.53-0.2,0.82L0.5,55.83h54.99L55.29,54.94z
		 M15.9,18.3c-0.08-0.23,0.24-0.39,0.27-0.41l0.41-0.2l0.01-4.59c0-0.49,0.03-0.92,0.08-1.31c0.51-3.79,2.87-7.06,6.25-8.76v2.33
		h1.45V2.41V1.96l1.4-0.29v3.69h1.45V1.84c0.6-0.05,1.2-0.05,1.79,0v3.52h1.45V1.67l1.4,0.29v0.45v2.95h1.45V3.04
		c3.38,1.7,5.74,4.97,6.25,8.76c0.05,0.4,0.08,0.83,0.08,1.31l0.01,4.59l0.41,0.2c0.04,0.02,0.35,0.18,0.27,0.41
		c-0.16,0.48-0.32,0.96-0.47,1.45c-0.2,0.6-0.66,1.14-1.24,1.52c-0.08,0.06-0.17,0.11-0.25,0.15c-0.05,0.03-0.1,0.05-0.14,0.07
		c-0.07,0.04-0.15,0.07-0.22,0.1c-0.07,0.03-0.15,0.05-0.22,0.08c-0.06,0.02-0.12,0.04-0.17,0.06c-0.14,0.04-0.27,0.07-0.41,0.09
		c-5.98,0.76-12.16,0.76-18.13,0c-0.14-0.02-0.29-0.05-0.43-0.09c-0.06-0.02-0.11-0.04-0.17-0.06c-0.08-0.03-0.16-0.05-0.24-0.08
		c-0.08-0.03-0.16-0.07-0.23-0.11c-0.05-0.02-0.1-0.05-0.14-0.07c-0.1-0.05-0.19-0.11-0.28-0.18c-0.04-0.03-0.08-0.05-0.12-0.08
		l-0.07-0.05c-0.47-0.37-0.83-0.84-1-1.35C16.21,19.27,16.06,18.78,15.9,18.3z M18.46,28.35c-0.1,0-0.18-0.02-0.26-0.12
		c-0.05-0.2-0.15-0.59-0.27-0.88c-0.09-0.23-0.15-0.47-0.18-0.71c-0.1-0.97-0.25-1.71-0.47-2.2c-0.22-0.49-0.28-1.04-0.17-1.54
		c0.02-0.08,0.03-0.14,0.05-0.19c0.01,0,0.02,0.01,0.02,0.01c0.24,0.13,0.49,0.24,0.76,0.33c0.04,0.01,0.07,0.02,0.11,0.04
		c0.09,0.03,0.19,0.06,0.29,0.08c0.04,0.01,0.08,0.02,0.11,0.03c0.13,0.03,0.26,0.05,0.39,0.07c3.05,0.39,6.16,0.58,9.25,0.58
		c3.09,0,6.2-0.2,9.25-0.59c0.12-0.02,0.24-0.04,0.36-0.06c0.04-0.01,0.07-0.02,0.11-0.03c0.09-0.02,0.17-0.04,0.25-0.07
		c0.04-0.01,0.07-0.02,0.11-0.04c0.09-0.03,0.17-0.06,0.25-0.09c0.03-0.01,0.06-0.02,0.09-0.04c0.1-0.04,0.2-0.08,0.29-0.13
		c0.01,0,0.02-0.01,0.03-0.01c0.01,0.03,0.02,0.06,0.02,0.1c0.11,0.51,0.05,1.06-0.17,1.55c-0.22,0.49-0.37,1.23-0.47,2.2
		c-0.02,0.24-0.08,0.48-0.18,0.72c-0.12,0.29-0.21,0.67-0.26,0.87c-0.08,0.1-0.16,0.12-0.26,0.12c-0.08,0-0.14-0.02-0.14-0.02
		l-0.98-0.37v1.05c0,0.61-0.06,1.32-0.19,2.11c-0.12,0.79-0.42,1.55-0.86,2.21c-0.36,0.54-0.65,0.9-0.65,0.9
		c-1.09,1.22-4.33,4.4-6.24,4.4c-0.1,0-0.2-0.01-0.29-0.03c-0.07-0.02-0.14-0.02-0.21-0.02c-0.07,0-0.14,0.01-0.21,0.02
		c-0.09,0.02-0.18,0.03-0.29,0.03c-1.91,0-5.15-3.18-6.22-4.38c0,0-0.3-0.36-0.66-0.92c-0.44-0.66-0.73-1.42-0.86-2.21
		c-0.12-0.78-0.19-1.51-0.19-2.11l-0.02-0.99l-0.95,0.31C18.61,28.33,18.54,28.35,18.46,28.35z M19.9,41.96
		c0.32-0.24,0.63-0.49,0.92-0.73c0.39-0.33,0.63-0.8,0.67-1.31c0.03-0.47,0.09-1.4,0.12-2.34c0.01-0.34,0.02-0.65,0.02-0.92
		c1.52,1.45,3.94,3.41,5.88,3.41c0.17,0,0.33-0.01,0.49-0.04c0.16,0.03,0.32,0.04,0.49,0.04c1.94,0,4.35-1.96,5.88-3.41
		c0,0.27,0.01,0.58,0.02,0.92c0.03,0.88,0.08,1.76,0.12,2.34c0.03,0.5,0.28,0.98,0.67,1.31c0.29,0.24,0.6,0.49,0.92,0.73
		c1.02,0.78,2.14,1.42,3.32,1.93c-3.55,2.79-10.29,4.57-11.43,4.85c-1.14-0.29-7.87-2.06-11.43-4.85
		C17.76,43.38,18.87,42.74,19.9,41.96z M2.33,54.38c0.27-1.06,0.54-1.94,0.79-2.66c0.07-0.21,0.14-0.4,0.22-0.58
		c0.04-0.09,0.07-0.18,0.1-0.26c0.76-1.87,1.33-2.35,1.34-2.36c0.01-0.01,0.39-0.27,1.36-0.75c1.21-0.59,3.32-1.5,6.76-2.63
		c0.64-0.21,1.33-0.43,2.07-0.66c0,0,0,0,0,0c0.01,0,0.02-0.01,0.03-0.01c3.91,3.59,12.45,5.64,12.82,5.72L28,50.23l0.17-0.04
		c0.37-0.09,8.91-2.13,12.82-5.72c0.01,0,0.02,0.01,0.03,0.01c5.28,1.63,8.05,2.88,9.31,3.53c0.62,0.32,0.88,0.5,0.89,0.51
		c0.01,0.01,1.22,1.01,2.45,5.86H2.33z"/>
</g>
</svg>
