<?xml version="1.0" encoding="utf-8"?>
<!-- Generator: Adobe Illustrator 23.0.1, SVG Export Plug-In . SVG Version: 6.00 Build 0)  -->
<svg version="1.1" id="Layer_1" xmlns="http://www.w3.org/2000/svg" xmlns:xlink="http://www.w3.org/1999/xlink" x="0px" y="0px"
	 viewBox="0 0 50 58" style="enable-background:new 0 0 50 58;" xml:space="preserve">
<style type="text/css">
	.st0{fill:#228019;}
</style>
<g>
	<g>
		<g>
			<path class="st0" d="M35.01,57.47h-4.21c-0.66,0-1.22-0.44-1.39-1.08l-0.98-3.9c-0.32-0.12-0.63-0.25-0.94-0.39l-3.45,2.06
				c-0.55,0.33-1.29,0.24-1.74-0.22l-2.98-2.98c-0.46-0.46-0.55-1.18-0.22-1.74l2.06-3.45c-0.14-0.3-0.27-0.62-0.39-0.94l-3.9-0.98
				c-0.64-0.16-1.08-0.73-1.08-1.39v-4.21c0-0.66,0.44-1.22,1.08-1.39l3.9-0.98c0.12-0.32,0.25-0.63,0.39-0.94l-2.06-3.45
				c-0.34-0.56-0.25-1.28,0.22-1.74l2.98-2.98c0.45-0.45,1.19-0.54,1.74-0.22l3.45,2.06c0.3-0.14,0.62-0.27,0.94-0.39l0.98-3.9
				c0.16-0.64,0.73-1.08,1.39-1.08h4.21c0.66,0,1.22,0.44,1.39,1.08l0.98,3.9c0.32,0.12,0.63,0.25,0.93,0.39l3.45-2.06
				c0.55-0.33,1.29-0.24,1.74,0.22l2.98,2.98c0.46,0.46,0.55,1.18,0.22,1.74l-2.06,3.45c0.14,0.3,0.27,0.62,0.39,0.94l3.9,0.98
				c0.64,0.16,1.08,0.73,1.08,1.39v4.21c0,0.66-0.44,1.22-1.08,1.38l-3.9,0.98c-0.12,0.32-0.25,0.63-0.39,0.94l2.06,3.45
				c0.34,0.56,0.25,1.28-0.22,1.74l-2.98,2.98c-0.27,0.27-0.63,0.42-1.01,0.42l0,0c-0.26,0-0.51-0.07-0.73-0.2l-3.45-2.06
				c-0.3,0.14-0.62,0.27-0.93,0.39l-0.98,3.9C36.23,57.03,35.66,57.47,35.01,57.47z M30.83,55.99h4.13l0.98-3.88
				c0.12-0.46,0.45-0.83,0.89-0.99c0.3-0.11,0.6-0.23,0.89-0.37c0.42-0.19,0.92-0.17,1.33,0.07l3.44,2.05l2.92-2.92l-2.05-3.44
				c-0.24-0.41-0.27-0.9-0.07-1.33c0.13-0.29,0.26-0.59,0.37-0.89c0.16-0.44,0.53-0.77,0.99-0.88l3.88-0.98v-4.13l-3.88-0.98
				c-0.46-0.12-0.83-0.45-0.99-0.89c-0.11-0.3-0.23-0.6-0.37-0.89c-0.2-0.42-0.17-0.92,0.07-1.33l2.05-3.44l-2.93-2.93l-3.43,2.06
				c-0.4,0.24-0.91,0.27-1.33,0.07c-0.29-0.13-0.59-0.26-0.89-0.37c-0.44-0.16-0.77-0.53-0.89-0.99l-0.98-3.88h-4.13l-0.98,3.88
				c-0.12,0.46-0.45,0.83-0.89,0.99c-0.3,0.11-0.6,0.23-0.89,0.37c-0.42,0.2-0.92,0.17-1.33-0.07l-3.44-2.05l-2.92,2.92l2.05,3.44
				c0.24,0.41,0.27,0.9,0.07,1.33c-0.13,0.29-0.26,0.59-0.37,0.89c-0.16,0.44-0.53,0.77-0.99,0.88l-3.88,0.98v4.13l3.88,0.98
				c0.46,0.12,0.83,0.45,0.99,0.88c0.11,0.3,0.23,0.6,0.37,0.89c0.2,0.42,0.17,0.92-0.07,1.33l-2.05,3.44l2.93,2.93l3.43-2.06
				c0.4-0.24,0.91-0.27,1.33-0.07c0.29,0.13,0.59,0.26,0.89,0.37c0.44,0.16,0.77,0.53,0.89,0.99L30.83,55.99z"/>
		</g>
		<g>
			<path class="st0" d="M32.9,46.06c-3.14,0-5.69-2.55-5.69-5.69c0-3.14,2.55-5.69,5.69-5.69c3.14,0,5.69,2.55,5.69,5.69
				C38.59,43.51,36.04,46.06,32.9,46.06z M32.9,36.16c-2.32,0-4.21,1.89-4.21,4.21s1.89,4.21,4.21,4.21c2.32,0,4.21-1.89,4.21-4.21
				S35.22,36.16,32.9,36.16z"/>
		</g>
	</g>
	<g>
		<g>
			<path class="st0" d="M18.83,28.01c-0.09,0-0.19-0.01-0.28-0.03l-3.25-0.72c-0.58-0.13-0.99-0.63-1-1.22l-0.09-3.09
				c-0.18-0.12-0.36-0.24-0.53-0.37l-2.94,0.97c-0.55,0.18-1.18-0.04-1.49-0.53L7.47,20.2c-0.32-0.5-0.25-1.14,0.15-1.57l2.13-2.25
				c-0.04-0.21-0.08-0.43-0.11-0.64l-2.77-1.39c-0.53-0.26-0.8-0.85-0.68-1.43l0.72-3.25c0.13-0.58,0.63-0.99,1.22-1l3.09-0.09
				c0.12-0.18,0.24-0.36,0.37-0.53l-0.97-2.94c-0.18-0.56,0.03-1.17,0.53-1.49l2.81-1.79c0.48-0.31,1.15-0.24,1.57,0.15l2.25,2.13
				C18,4.07,18.21,4.03,18.43,4l1.39-2.77c0.26-0.52,0.86-0.8,1.43-0.68l3.25,0.72c0.57,0.13,0.99,0.63,1,1.22l0.09,3.09
				c0.18,0.12,0.36,0.24,0.53,0.37l2.94-0.97c0.55-0.18,1.18,0.04,1.49,0.53l1.79,2.81c0.32,0.5,0.25,1.14-0.15,1.57l-2.13,2.25
				c0.04,0.21,0.08,0.42,0.11,0.64l2.77,1.39c0.53,0.26,0.8,0.85,0.68,1.43l-0.72,3.25c-0.13,0.57-0.63,0.99-1.22,1l-3.09,0.09
				c-0.12,0.18-0.24,0.36-0.37,0.53l0.97,2.94c0.18,0.56-0.03,1.17-0.53,1.49l-2.81,1.79c-0.21,0.13-0.44,0.2-0.69,0.2l0,0
				c-0.33,0-0.64-0.12-0.88-0.35l-2.25-2.13c-0.21,0.04-0.43,0.08-0.64,0.11l-1.39,2.77C19.76,27.74,19.32,28.01,18.83,28.01z
				 M15.77,25.84l2.95,0.66l1.37-2.72c0.19-0.38,0.55-0.64,0.97-0.69c0.24-0.03,0.49-0.08,0.74-0.13c0.4-0.09,0.84,0.03,1.15,0.32
				l2.21,2.09l2.55-1.62l-0.96-2.89c-0.13-0.4-0.06-0.85,0.2-1.18c0.15-0.2,0.3-0.4,0.43-0.61c0.23-0.35,0.62-0.57,1.04-0.58
				l3.04-0.09l0.66-2.95l-2.72-1.37c-0.38-0.19-0.64-0.55-0.69-0.97c-0.03-0.25-0.08-0.5-0.13-0.73c-0.09-0.41,0.03-0.84,0.32-1.15
				L31,9l-1.62-2.55L26.49,7.4c-0.4,0.13-0.85,0.06-1.18-0.2c-0.2-0.15-0.4-0.3-0.61-0.43c-0.35-0.23-0.57-0.62-0.58-1.04
				l-0.09-3.04l-2.96-0.66L19.7,4.75c-0.19,0.38-0.55,0.64-0.97,0.69C18.48,5.48,18.24,5.53,18,5.58c-0.41,0.09-0.85-0.03-1.15-0.32
				l-2.21-2.09l-2.55,1.62l0.96,2.89c0.13,0.4,0.06,0.84-0.2,1.18c-0.15,0.2-0.29,0.4-0.43,0.61c-0.23,0.35-0.62,0.57-1.04,0.58
				l-3.04,0.09L7.67,13.1l2.72,1.37c0.38,0.19,0.64,0.55,0.7,0.97c0.03,0.24,0.08,0.49,0.13,0.73c0.09,0.41-0.03,0.84-0.32,1.15
				L8.8,19.53l1.62,2.55l2.89-0.96c0.4-0.13,0.85-0.06,1.18,0.2c0.2,0.15,0.4,0.3,0.61,0.43c0.35,0.23,0.57,0.62,0.58,1.04
				L15.77,25.84z"/>
		</g>
		<g>
			<path class="st0" d="M19.9,18.92c-0.34,0-0.68-0.04-1.01-0.11c-1.21-0.27-2.25-1-2.92-2.05c-0.67-1.05-0.89-2.29-0.62-3.51
				c0.47-2.11,2.38-3.64,4.54-3.64c0.34,0,0.68,0.04,1.01,0.11c2.5,0.56,4.09,3.05,3.53,5.55C23.97,17.39,22.06,18.92,19.9,18.92z
				 M19.9,11.09c-1.47,0-2.78,1.05-3.1,2.49c-0.18,0.83-0.04,1.68,0.42,2.39c0.46,0.72,1.16,1.21,1.99,1.4
				c0.23,0.05,0.46,0.08,0.69,0.08c1.47,0,2.77-1.05,3.1-2.49c0.38-1.71-0.7-3.41-2.41-3.79C20.36,11.12,20.13,11.09,19.9,11.09z"/>
		</g>
	</g>
	<g>
		<g>
			<path class="st0" d="M9.83,41.11C9.83,41.11,9.83,41.11,9.83,41.11c-0.36,0-0.69-0.18-0.88-0.47l-0.93-1.39
				c-0.03,0-0.06,0-0.08,0l-1.07,1.29c-0.3,0.37-0.84,0.49-1.27,0.28l-1.78-0.84c-0.44-0.21-0.68-0.69-0.59-1.17l0.32-1.64
				c-0.02-0.02-0.04-0.04-0.06-0.06l-1.77,0.17c-0.45,0-0.85-0.28-1-0.7l-0.66-1.85c-0.16-0.46,0-0.97,0.41-1.24l1.39-0.93
				c0-0.03,0-0.06,0-0.08L0.57,31.4c-0.38-0.31-0.49-0.83-0.28-1.27l0.84-1.78c0.2-0.43,0.68-0.68,1.17-0.59l1.64,0.32
				c0.02-0.02,0.04-0.04,0.06-0.06l-0.16-1.67c-0.05-0.48,0.24-0.94,0.7-1.1l1.85-0.66c0.45-0.16,0.97,0.01,1.24,0.41l0.93,1.39
				c0.03,0,0.06,0,0.08,0l1.07-1.29c0.3-0.37,0.84-0.49,1.27-0.28l1.78,0.84c0.44,0.21,0.68,0.69,0.59,1.16l-0.33,1.64
				c0.02,0.02,0.04,0.04,0.06,0.06l1.77-0.17c0.45,0,0.85,0.28,1,0.7l0.66,1.85c0.16,0.46-0.01,0.97-0.41,1.24l-1.39,0.93
				c0,0.03,0,0.06,0,0.08l1.29,1.07c0.38,0.31,0.49,0.83,0.28,1.27l-0.84,1.78c-0.2,0.43-0.68,0.68-1.16,0.59l-1.64-0.32
				c-0.02,0.02-0.04,0.04-0.06,0.06l0.16,1.67c0.05,0.48-0.24,0.94-0.7,1.1l-1.85,0.66C10.07,41.09,9.95,41.11,9.83,41.11z
				 M7.74,37.75l0.1,0c0.14,0.01,0.28,0.02,0.41,0.02c0.35,0,0.67,0.18,0.87,0.47l0.87,1.3l1.24-0.44l-0.15-1.56
				c-0.03-0.35,0.11-0.69,0.38-0.92c0.11-0.09,0.21-0.18,0.31-0.28c0.25-0.24,0.6-0.35,0.95-0.28l1.54,0.3l0.56-1.19l-1.21-1
				c-0.27-0.22-0.41-0.57-0.38-0.91c0.01-0.14,0.02-0.27,0.02-0.41c0-0.35,0.18-0.67,0.47-0.87l1.3-0.87l-0.44-1.24l-1.66,0.15
				c-0.32,0-0.61-0.14-0.81-0.38c-0.09-0.11-0.18-0.21-0.28-0.31c-0.24-0.25-0.35-0.6-0.28-0.95l0.3-1.54l-1.19-0.56l-1,1.21
				c-0.2,0.25-0.5,0.39-0.82,0.39l-0.1,0c-0.14-0.01-0.28-0.02-0.42-0.02c-0.35,0-0.67-0.18-0.87-0.47l-0.87-1.3l-1.24,0.44
				L5.5,28.1c0.03,0.35-0.11,0.69-0.37,0.91c-0.11,0.09-0.21,0.18-0.31,0.28c-0.25,0.24-0.6,0.35-0.95,0.28l-1.54-0.3l-0.56,1.19
				l1.21,1c0.27,0.22,0.41,0.56,0.38,0.91c-0.01,0.14-0.02,0.28-0.02,0.42c0,0.35-0.18,0.67-0.47,0.87l-1.3,0.87l0.44,1.24
				l1.66-0.15c0.32,0,0.61,0.14,0.81,0.38c0.09,0.11,0.18,0.21,0.28,0.31c0.25,0.25,0.35,0.61,0.28,0.95l-0.3,1.53l1.19,0.56l1-1.21
				C7.13,37.89,7.43,37.75,7.74,37.75z"/>
		</g>
		<g>
			<path class="st0" d="M8.29,35.88c-1.29,0-2.44-0.81-2.88-2.03c-0.27-0.77-0.23-1.6,0.12-2.33c0.35-0.74,0.96-1.29,1.73-1.57
				c0.33-0.12,0.68-0.18,1.03-0.18c1.29,0,2.44,0.81,2.88,2.03c0.57,1.59-0.26,3.34-1.85,3.9C8.99,35.82,8.64,35.88,8.29,35.88z
				 M8.29,31.25c-0.18,0-0.36,0.03-0.53,0.09c-0.4,0.14-0.71,0.43-0.89,0.81c-0.18,0.38-0.2,0.81-0.06,1.2
				c0.22,0.63,0.82,1.05,1.48,1.05c0.18,0,0.36-0.03,0.53-0.09c0.82-0.29,1.25-1.19,0.95-2.01C9.55,31.67,8.95,31.25,8.29,31.25z"/>
		</g>
	</g>
</g>
</svg>
