<?xml version="1.0" encoding="utf-8"?>
<!-- Generator: Adobe Illustrator 23.0.1, SVG Export Plug-In . SVG Version: 6.00 Build 0)  -->
<svg version="1.1" id="Layer_1" xmlns="http://www.w3.org/2000/svg" xmlns:xlink="http://www.w3.org/1999/xlink" x="0px" y="0px"
	 viewBox="0 0 46 56" style="enable-background:new 0 0 46 56;" xml:space="preserve">
<style type="text/css">
	.st0{fill:#228019;}
</style>
<g>
	<path class="st0" d="M22.64,5.59h0.73c0.2,0,0.36-0.16,0.36-0.36V0.79c0-0.2-0.16-0.36-0.36-0.36h-0.73c-0.2,0-0.36,0.16-0.36,0.36
		v4.44C22.27,5.43,22.44,5.59,22.64,5.59z"/>
	<path class="st0" d="M23,8.38c-7.92,0-14.37,6.4-14.37,14.26c0,3.01,0.94,5.89,2.71,8.33c2.61,3.59,4.31,7.75,4.94,12.06l0.23,6.34
		c0.08,2.21,1.62,4.1,3.73,4.65l0,0.01c0.29,0.92,1.14,1.54,2.1,1.54h1.33c0.97,0,1.81-0.62,2.1-1.54l0-0.01
		c2.1-0.56,3.63-2.45,3.71-4.65l0.22-6.13c0.6-4.38,2.32-8.63,4.97-12.27c1.77-2.44,2.71-5.32,2.71-8.33
		C37.37,14.78,30.93,8.38,23,8.38z M25.09,52.69l-0.44,0.07l-0.26,0.83c-0.1,0.32-0.39,0.53-0.72,0.53h-1.33
		c-0.33,0-0.62-0.21-0.72-0.53l-0.26-0.83l-0.44-0.07c-1.04-0.17-1.92-0.8-2.45-1.66l9.55-1.47C27.85,51.12,26.65,52.42,25.09,52.69
		z M28.07,48.08l-10.1,1.56c-0.01-0.11-0.02-0.21-0.03-0.32l-0.05-1.52l10.25-1.58L28.07,48.08z M28.19,44.75l-10.35,1.6l-0.09-2.45
		h10.47L28.19,44.75z M33.49,30.12c-2.67,3.67-4.44,7.92-5.14,12.32h-10.7c-0.71-4.41-2.48-8.65-5.14-12.32
		c-1.59-2.19-2.43-4.77-2.43-7.48c0-7.06,5.8-12.81,12.92-12.81c7.12,0,12.92,5.75,12.92,12.81C35.92,25.35,35.08,27.93,33.49,30.12
		z"/>
	<path class="st0" d="M13.52,7.96c0.1,0.17,0.32,0.23,0.5,0.13l0.63-0.36c0.17-0.1,0.23-0.32,0.13-0.5l-2.22-3.84
		c-0.1-0.17-0.32-0.23-0.5-0.13l-0.63,0.36c-0.17,0.1-0.23,0.32-0.13,0.5L13.52,7.96z"/>
	<path class="st0" d="M8.04,13.45l-3.84-2.22c-0.17-0.1-0.4-0.04-0.5,0.13l-0.36,0.63c-0.1,0.17-0.04,0.4,0.13,0.5l3.84,2.22
		c0.17,0.1,0.4,0.04,0.5-0.13l0.36-0.63C8.27,13.77,8.21,13.55,8.04,13.45z"/>
	<path class="st0" d="M5.67,23.29v-0.73c0-0.2-0.16-0.36-0.36-0.36H0.86c-0.2,0-0.36,0.16-0.36,0.36v0.73c0,0.2,0.16,0.36,0.36,0.36
		H5.3C5.5,23.65,5.67,23.49,5.67,23.29z"/>
	<path class="st0" d="M7.81,31.28c-0.1-0.17-0.32-0.23-0.5-0.13l-3.84,2.22c-0.17,0.1-0.23,0.32-0.13,0.5l0.36,0.63
		c0.1,0.17,0.32,0.23,0.5,0.13l3.84-2.22c0.17-0.1,0.23-0.32,0.13-0.5L7.81,31.28z"/>
	<path class="st0" d="M42.53,33.36l-3.84-2.22c-0.17-0.1-0.4-0.04-0.5,0.13l-0.36,0.63c-0.1,0.17-0.04,0.4,0.13,0.5l3.84,2.22
		c0.17,0.1,0.4,0.04,0.5-0.13l0.36-0.63C42.77,33.69,42.71,33.46,42.53,33.36z"/>
	<path class="st0" d="M45.14,22.2H40.7c-0.2,0-0.36,0.16-0.36,0.36v0.73c0,0.2,0.16,0.36,0.36,0.36h4.44c0.2,0,0.36-0.16,0.36-0.36
		v-0.73C45.5,22.36,45.34,22.2,45.14,22.2z"/>
	<path class="st0" d="M38.19,14.57c0.1,0.17,0.32,0.23,0.5,0.13l3.84-2.22c0.17-0.1,0.23-0.32,0.13-0.5l-0.36-0.63
		c-0.1-0.17-0.32-0.23-0.5-0.13l-3.84,2.22c-0.17,0.1-0.23,0.32-0.13,0.5L38.19,14.57z"/>
	<path class="st0" d="M31.35,7.73l0.63,0.36c0.17,0.1,0.4,0.04,0.5-0.13l2.22-3.84c0.1-0.17,0.04-0.4-0.13-0.5l-0.63-0.36
		c-0.17-0.1-0.4-0.04-0.5,0.13l-2.22,3.84C31.12,7.41,31.18,7.63,31.35,7.73z"/>
</g>
</svg>
