<?xml version="1.0" encoding="utf-8"?>
<!-- Generator: Adobe Illustrator 23.0.1, SVG Export Plug-In . SVG Version: 6.00 Build 0)  -->
<svg version="1.1" id="Layer_1" xmlns="http://www.w3.org/2000/svg" xmlns:xlink="http://www.w3.org/1999/xlink" x="0px" y="0px"
	 viewBox="0 0 57 56" style="enable-background:new 0 0 57 56;" xml:space="preserve">
<style type="text/css">
	.st0{fill:#228019;}
</style>
<g>
	<path class="st0" d="M56.29,43.99L39.55,27.26l16.31-16.31c0.58-0.58,0.89-1.34,0.89-2.16c0-0.81-0.32-1.58-0.89-2.16l-5.16-5.16
		c-0.58-0.58-1.34-0.89-2.16-0.89c-0.81,0-1.58,0.32-2.16,0.89L30.08,17.79L13.14,0.84c-0.46-0.46-1.07-0.71-1.71-0.71
		c-0.65,0-1.26,0.25-1.71,0.71L2.39,8.16C1.94,8.61,1.68,9.22,1.68,9.87c0,0.65,0.25,1.26,0.71,1.71l16.95,16.95l-8.45,8.45
		l-0.08,0.08L1,55.87l19.28-9.34L28.81,38l16.74,16.74c0.46,0.46,1.07,0.71,1.71,0.71c0.65,0,1.26-0.25,1.71-0.71l7.32-7.32
		C57.24,46.47,57.24,44.94,56.29,43.99z M47.41,2.49c0.3-0.3,0.71-0.47,1.14-0.47c0.43,0,0.84,0.17,1.14,0.47l5.16,5.16
		c0.3,0.3,0.47,0.71,0.47,1.14c0,0.43-0.17,0.84-0.47,1.14l-3.92,3.92l-7.44-7.44L47.41,2.49z M42.47,7.43l7.44,7.44l-2.18,2.18
		l-7.44-7.44L42.47,7.43z M19.17,26.32l3.56-3.56c0.14-0.14,0.14-0.37,0-0.51l-0.51-0.51c-0.14-0.14-0.37-0.14-0.51,0l-3.56,3.56
		L12.84,20l3.56-3.56c0.14-0.14,0.14-0.37,0-0.51l-0.51-0.51c-0.14-0.14-0.37-0.14-0.51,0l-3.56,3.56l-5.31-5.31l3.56-3.56
		c0.14-0.14,0.14-0.37,0-0.51L9.57,9.1c-0.14-0.14-0.37-0.14-0.51,0L5.5,12.66l-2.09-2.09c-0.19-0.19-0.29-0.43-0.29-0.7
		c0-0.26,0.1-0.51,0.29-0.7l7.32-7.32c0.19-0.19,0.43-0.29,0.7-0.29c0.26,0,0.51,0.1,0.7,0.29L29.07,18.8l-8.71,8.71L19.17,26.32z
		 M4.28,52.68l1.55-2.98l1.5,1.5L4.28,52.68z M8.71,50.54l-2.17-2.17l5.05-9.69l7.05,7.05L8.71,50.54z M27.8,36.98l-7.94,7.94
		l-7.44-7.44l7.94-7.94l0,0L31.1,18.8l0,0l8.18-8.18l7.44,7.44l-8.18,8.18l0,0L27.8,36.98L27.8,36.98z M55.28,46.4l-7.32,7.32
		c-0.37,0.37-1.02,0.37-1.39,0l-2.09-2.09l3.56-3.56c0.14-0.14,0.14-0.37,0-0.51l-0.51-0.51c-0.14-0.14-0.37-0.14-0.51,0l-3.56,3.56
		l-5.31-5.31l3.56-3.56c0.14-0.14,0.14-0.37,0-0.51l-0.51-0.51c-0.14-0.14-0.37-0.14-0.51,0l-3.56,3.56l-5.31-5.31l3.56-3.56
		c0.14-0.14,0.14-0.37,0-0.51l-0.51-0.51c-0.14-0.14-0.37-0.14-0.51,0l-3.56,3.56l-0.98-0.98l8.71-8.71l16.74,16.74
		C55.66,45.39,55.66,46.02,55.28,46.4z"/>
	<path class="st0" d="M39.46,15.07l-0.51-0.51c-0.14-0.14-0.37-0.14-0.51,0l-21.6,21.6c-0.14,0.14-0.14,0.37,0,0.51l0.51,0.51
		c0.14,0.14,0.37,0.14,0.51,0l21.6-21.6C39.6,15.44,39.6,15.22,39.46,15.07z"/>
	<path class="st0" d="M42.77,18.39l-0.51-0.51c-0.14-0.14-0.37-0.14-0.51,0l-21.6,21.6c-0.14,0.14-0.14,0.37,0,0.51l0.51,0.51
		c0.14,0.14,0.37,0.14,0.51,0l21.6-21.6C42.91,18.76,42.91,18.53,42.77,18.39z"/>
</g>
</svg>
