<?xml version="1.0" encoding="utf-8"?>
<!-- Generator: Adobe Illustrator 23.0.1, SVG Export Plug-In . SVG Version: 6.00 Build 0)  -->
<svg version="1.1" id="Layer_1" xmlns="http://www.w3.org/2000/svg" xmlns:xlink="http://www.w3.org/1999/xlink" x="0px" y="0px"
	 viewBox="0 0 44 60" style="enable-background:new 0 0 44 60;" xml:space="preserve">
<style type="text/css">
	.st0{fill:#228019;}
</style>
<g>
	<path class="st0" d="M19.26,12.38c1.06,0,1.91-0.86,1.91-1.91s-0.86-1.91-1.91-1.91c-1.06,0-1.91,0.86-1.91,1.91
		S18.21,12.38,19.26,12.38z M19.26,10c0.26,0,0.47,0.21,0.47,0.47s-0.21,0.47-0.47,0.47c-0.26,0-0.47-0.21-0.47-0.47S19,10,19.26,10
		z"/>
	<path class="st0" d="M42.23,21.89c0.36-0.79,0.37-1.7,0.02-2.5c-0.34-0.79-1.01-1.4-1.83-1.68l-0.05-0.02
		c-0.32-0.11-0.64-0.16-0.98-0.16c-1.2,0-2.3,0.71-2.79,1.8c-1.59,3.52-4.1,6.48-7.3,8.62l-4.26-16.25l-0.68-0.81
		c0.01-0.14,0.02-0.29,0.02-0.44c0-2.11-1.28-3.92-3.1-4.7V2.49c0-0.73-0.6-1.33-1.33-1.33h-1.51c-0.73,0-1.33,0.6-1.33,1.33v3.32
		c-1.76,0.81-2.99,2.59-2.99,4.65c0,0.28,0.03,0.55,0.07,0.82l-0.36,0.43L1.5,58.84l4.96-5.55l5.77-16.3
		c1.85,0.4,3.76,0.61,5.66,0.61c0.22,0,0.45,0,0.67-0.01c2.68-0.07,5.3-0.53,7.82-1.37l6,16.94l0.05,0.13l4.96,5.55L30.94,34.2
		C35.89,31.42,39.89,27.07,42.23,21.89z M18.57,5.39V2.61h1.27v2.76c-0.01,0-0.02,0-0.03,0c-0.18-0.02-0.37-0.03-0.56-0.03
		c-0.01,0-0.02,0-0.03,0c-0.04,0-0.09,0.01-0.13,0.01c-0.15,0-0.31,0.01-0.46,0.03C18.62,5.38,18.6,5.38,18.57,5.39z M19.26,6.79
		c2.03,0,3.68,1.65,3.68,3.68c0,2.03-1.65,3.68-3.68,3.68c-2.03,0-3.68-1.65-3.68-3.68C15.58,8.44,17.23,6.79,19.26,6.79z
		 M5.19,52.53L4.42,53.4l10.53-40.17c0.5,0.78,1.21,1.41,2.04,1.82c0.1,0.05,0.2,0.1,0.31,0.15c0,0,0.01,0,0.01,0
		c0.32,0.13,0.66,0.23,1,0.3L5.19,52.53z M23.61,35.5l-0.32-1.56c-0.04-0.2-0.23-0.32-0.43-0.28l-0.71,0.14
		c-0.2,0.04-0.32,0.23-0.28,0.43l0.32,1.56c-0.97,0.17-1.95,0.27-2.94,0.33l-0.04-1.59c0-0.2-0.17-0.36-0.37-0.35l-0.72,0.02
		c-0.2,0-0.36,0.17-0.35,0.37l0.04,1.59c-0.99,0-1.97-0.06-2.95-0.18l0.24-1.58c0.03-0.2-0.11-0.38-0.3-0.41l-0.71-0.11
		c-0.2-0.03-0.38,0.11-0.41,0.3l-0.24,1.58c-0.24-0.04-0.47-0.09-0.71-0.14l1.11-3.13c1.34,0.25,2.71,0.38,4.08,0.38
		c2.36,0,4.68-0.37,6.91-1.11l1.1,3.1C25.15,35.11,24.38,35.32,23.61,35.5z M17.9,31.42c-1.2,0-2.4-0.11-3.59-0.32l5.13-14.49
		l4.88,13.77C22.25,31.07,20.1,31.42,17.9,31.42z M33.7,52.53L20.56,15.42c0.02-0.01,0.04-0.01,0.06-0.02
		c0.15-0.04,0.29-0.09,0.43-0.14c0.02-0.01,0.04-0.01,0.06-0.02c1.18-0.45,2.14-1.33,2.72-2.44c0-0.01,0.01-0.01,0.01-0.02
		L34.47,53.4L33.7,52.53z M35.13,29.34l-1.05-1.19c-0.13-0.15-0.36-0.16-0.51-0.03l-0.54,0.48c-0.15,0.13-0.16,0.36-0.03,0.51
		l1.05,1.19c-1.09,0.91-2.26,1.73-3.49,2.45l-0.37-1.43l-0.49-1.89c3.62-2.31,6.46-5.58,8.23-9.5c0.26-0.58,0.84-0.95,1.47-0.95
		c0.17,0,0.35,0.03,0.51,0.08l0.05,0.02c0.44,0.15,0.78,0.46,0.97,0.89c0.19,0.43,0.18,0.9-0.01,1.33c-0.16,0.35-0.33,0.7-0.51,1.05
		L39,21.58c-0.18-0.1-0.39-0.03-0.49,0.14l-0.35,0.63c-0.1,0.18-0.03,0.39,0.14,0.49l1.4,0.76c-0.5,0.85-1.05,1.67-1.64,2.46
		l-1.24-0.99c-0.16-0.12-0.38-0.1-0.51,0.06l-0.45,0.57c-0.12,0.16-0.1,0.38,0.06,0.51l1.24,0.99
		C36.53,27.96,35.85,28.67,35.13,29.34z"/>
</g>
</svg>
